<?xml version="1.0" encoding="utf-8"?>
<!-- Generator: Adobe Illustrator 26.4.1, SVG Export Plug-In . SVG Version: 6.00 Build 0)  -->
<svg version="1.1" id="Tracing" xmlns="http://www.w3.org/2000/svg" xmlns:xlink="http://www.w3.org/1999/xlink" x="0px" y="0px"
	 viewBox="0 0 425.85 338.09" style="enable-background:new 0 0 425.85 338.09;" xml:space="preserve">
<style type="text/css">
	.st0{fill:#A9A6A1;}
	.st1{fill:#AEADA8;}
	.st2{fill:#F5F6F0;}
	.st3{fill:#7D7C78;}
	.st4{fill:#E7E6E1;}
	.st5{fill:#494A45;}
	.st6{fill:#32342F;}
	.st7{fill:#475E4A;}
	.st8{fill:#706F6A;}
	.st9{fill:#A8AAA5;}
	.st10{fill:#FAFDF6;}
	.st11{fill:#DDDED8;}
	.st12{fill:#7E7F79;}
	.st13{fill:#EEF1EA;}
	.st14{fill:#B3B2AE;}
	.st15{fill:#D2D3CD;}
	.st16{fill:#34623D;}
	.st17{fill:#D3DECD;}
	.st18{fill:#617460;}
	.st19{fill:#9C9D97;}
	.st20{fill:#E6E5E0;}
	.st21{fill:#CACBC5;}
	.st22{fill:#5B5C57;}
	.st23{fill:#B0AFAB;}
	.st24{fill:#3B3D38;}
	.st25{fill:#1F2A24;}
	.st26{fill:#717B70;}
	.st27{fill:#959691;}
	.st28{fill:#B1B0AB;}
	.st29{fill:#636260;}
	.st30{fill:#777A73;}
	.st31{fill:#8FFC89;}
	.st32{fill:#656A66;}
	.st33{fill:#757573;}
	.st34{fill:#ABD6A9;}
	.st35{fill:#696B66;}
	.st36{fill:#3A3A3A;}
	.st37{fill:#5C5C5A;}
	.st38{fill:#ACADA7;}
	.st39{fill:#4B4B49;}
	.st40{fill:#787876;}
	.st41{fill:#C1C2BC;}
	.st42{fill:#404040;}
	.st43{fill:#7A8080;}
	.st44{fill:#66676B;}
	.st45{fill:#60635C;}
</style>
<g id="XMLID_00000054975994839213156930000008618695382996501889_">
	<g>
		<polygon class="st0" points="425.59,304.01 425.59,337.85 272.41,320.21 398.27,304.01 		"/>
		<polygon class="st1" points="425.59,89.6 425.59,280.01 407.67,184.88 		"/>
		<polygon class="st2" points="425.59,89.6 407.67,184.88 389.74,95.97 		"/>
		<polygon class="st3" points="407.67,184.88 425.59,280.01 389.74,272.78 		"/>
		<polygon class="st4" points="425.59,89.6 389.74,95.97 396.53,63.44 		"/>
		<polygon class="st5" points="425.59,280.01 398.27,304.01 389.74,272.78 		"/>
		<polygon class="st6" points="425.59,337.85 120.39,337.85 272.41,320.21 		"/>
		<polygon class="st7" points="389.74,95.97 407.67,184.88 389.74,272.78 		"/>
		<polygon class="st8" points="389.74,272.78 398.27,304.01 273.79,288.54 		"/>
		<polygon class="st9" points="398.27,304.01 272.41,320.21 146.56,304.01 		"/>
		<polygon class="st10" points="396.53,63.44 389.74,95.97 272.63,79.34 		"/>
		<polygon class="st11" points="396.53,63.44 272.63,79.34 272.61,79.34 148.58,63.44 		"/>
		<polygon class="st12" points="396.53,63.44 148.58,63.44 272.63,34.23 		"/>
		<polygon class="st13" points="396.53,63.44 272.63,34.23 285.93,34.23 296.49,34.23 353.31,34.23 		"/>
		<polygon class="st14" points="389.74,95.97 389.74,272.78 272.92,183.15 		"/>
		<polygon class="st15" points="389.74,95.97 272.92,183.15 272.56,95.97 		"/>
		<polygon class="st16" points="389.74,95.97 272.56,95.97 157.26,95.97 272.61,79.34 272.63,79.34 		"/>
		<polygon class="st17" points="389.74,272.78 273.79,288.54 156.1,272.78 		"/>
		<polygon class="st18" points="389.74,272.78 156.1,272.78 272.92,183.15 		"/>
		<polygon class="st19" points="305.74,10.23 296.49,34.23 285.93,34.23 293.02,10.23 		"/>
		<polygon class="st20" points="305.74,10.23 293.02,10.23 284.2,0.25 295.62,0.25 		"/>
		<polygon class="st21" points="284.2,0.25 293.02,10.23 252.25,10.23 278.27,0.25 		"/>
		<polygon class="st22" points="293.02,10.23 285.93,34.23 272.63,34.23 258.17,34.23 252.25,10.23 		"/>
		<polygon class="st23" points="278.27,0.25 252.25,10.23 252.25,0.25 		"/>
		<polygon class="st24" points="273.79,288.54 146.56,304.01 156.1,272.78 		"/>
		<path class="st25" d="M272.56,95.97l0.36,87.18l-116.24,0.57l0.58-87.75H272.56z M257.45,164.35v-8.24h-38.02v8.24H257.45z
			 M211.62,141.36v-8.53l-34.12-17.92v9.97l22.99,12.44l-22.99,13.44v10.7L211.62,141.36z"/>
		<polygon class="st26" points="272.92,183.15 156.1,272.78 156.68,183.72 		"/>
		<polygon class="st27" points="272.63,34.23 148.58,63.44 193.84,34.23 250.51,34.23 258.17,34.23 		"/>
		<polygon class="st28" points="272.61,79.34 157.26,95.97 148.58,63.44 		"/>
		<polygon class="st29" points="272.41,320.21 120.39,337.85 119.81,304.01 146.56,304.01 		"/>
		<polygon class="st30" points="252.25,10.23 258.17,34.23 250.51,34.23 240.53,10.23 		"/>
		<rect x="219.43" y="156.11" class="st31" width="38.02" height="8.24"/>
		<polygon class="st32" points="252.25,0.25 252.25,10.23 240.53,10.23 		"/>
		<polygon class="st31" points="211.62,132.83 211.62,141.36 177.5,161.46 177.5,150.76 200.49,137.32 177.5,124.88 177.5,114.91 		
			"/>
		<polygon class="st33" points="148.58,63.44 157.26,95.97 120.39,90.62 		"/>
		<polygon class="st34" points="157.26,95.97 156.68,183.72 156.1,272.78 137.45,182.71 		"/>
		<polygon class="st35" points="157.26,95.97 137.45,182.71 120.39,90.62 		"/>
		<polygon class="st36" points="137.45,182.71 156.1,272.78 120.39,278.28 		"/>
		<polygon class="st37" points="156.1,272.78 146.56,304.01 120.39,278.28 		"/>
		<polygon class="st38" points="120.39,90.62 137.45,182.71 120.39,278.28 120.39,263.53 120.39,197.03 120.39,150.76 
			120.39,144.69 		"/>
		<polygon class="st39" points="120.39,197.03 120.39,263.53 90.17,182.57 		"/>
		<polygon class="st40" points="120.39,150.76 120.39,197.03 90.17,182.57 		"/>
		<polygon class="st41" points="120.39,144.69 120.39,150.76 90.17,182.57 44.78,82.38 56.78,82.38 110.7,144.69 		"/>
		<polygon class="st42" points="90.17,182.57 120.39,263.53 62.85,219.15 		"/>
		<polygon class="st43" points="44.78,82.38 90.17,182.57 35.52,124.45 		"/>
		<polygon class="st44" points="35.52,124.45 90.17,182.57 62.85,219.15 		"/>
		<polygon class="st45" points="44.78,82.38 35.52,124.45 0.25,82.38 		"/>
	</g>
</g>
</svg>
